<?xml version="1.0" encoding="utf-8"?>
<!-- Generator: Adobe Illustrator 23.0.2, SVG Export Plug-In . SVG Version: 6.00 Build 0)  -->
<svg version="1.1" xmlns="http://www.w3.org/2000/svg" xmlns:xlink="http://www.w3.org/1999/xlink" x="0px" y="0px"
	 viewBox="0 0 500 500" style="enable-background:new 0 0 500 500;" xml:space="preserve">
<style type="text/css">
	.st0{display:none;}
	.st1{display:inline;}
	.st2{fill:#615A5A;}
	.st3{fill:#F9A60C;}
	.st4{fill:#ADDEE5;}
	.st5{fill:none;}
	.st6{fill:#4EC4D4;}
	.st7{display:inline;fill:#615A5A;}
	.st8{fill:#CDF2C0;}
	.st9{fill:#6DD6B0;}
	.st10{fill:#FFBFBF;}
	.st11{fill:#FF789E;}
	.st12{clip-path:url(#SVGID_2_);fill:#FFD9D9;}
	.st13{fill:#E56589;}
	.st14{clip-path:url(#SVGID_4_);fill:#CDF2C0;}
	.st15{clip-path:url(#SVGID_6_);}
	.st16{fill:#E1ECED;}
	.st17{clip-path:url(#SVGID_8_);}
	.st18{fill:#FFD9D9;}
	.st19{clip-path:url(#SVGID_10_);}
	.st20{fill:#B0937C;}
	.st21{fill:#99806C;}
	.st22{fill:#C4A38A;}
	.st23{fill:#DED9D9;}
	.st24{clip-path:url(#SVGID_12_);}
	.st25{fill:#D6A8A7;}
	.st26{clip-path:url(#SVGID_14_);}
	.st27{fill:#C2A288;}
	.st28{fill:#E3C7B1;}
	.st29{fill:#AB8F78;}
	.st30{fill:#D6B296;}
</style>
<g id="OBJECTS">
	<g>
		<g class="st0">
			<g class="st1">
				<g>
					<g>
						<g>
							<rect x="344.13" y="273.92" class="st2" width="1.64" height="12.83"/>
							<rect x="351.21" y="273.92" class="st2" width="1.64" height="12.83"/>
						</g>
						<rect x="342.33" y="285.52" class="st2" width="5.19" height="1.64"/>
						<rect x="349.43" y="285.52" class="st2" width="5.19" height="1.64"/>
					</g>
					<polygon class="st3" points="386.14,215.23 404.09,220.29 393.43,224.07 401.84,229.79 384.57,230.52 					"/>
					<path class="st4" d="M382.59,250.79c-27.4,46.3-79.13,16.08-79.13,16.08s8.25-8.36,10.29-19.08
						c3.17-16.64,4.13-39.93,15.87-48.25C362.5,176.24,407.46,208.76,382.59,250.79z"/>
					<path class="st5" d="M382.59,250.79c-27.4,46.3-79.13,16.08-79.13,16.08s8.25-8.36,10.29-19.08
						c3.17-16.64,4.13-39.93,15.87-48.25C362.5,176.24,407.46,208.76,382.59,250.79z"/>
					<path class="st6" d="M330.04,228.92c10.94-8.58,23.17,6.43,16.58,18.87c-7.39,13.95-23.01,10.72-25.15,10.94
						C324.26,249.07,319.11,237.5,330.04,228.92z"/>
				</g>
			</g>
			<path class="st7" d="M378.42,214.6c0.45,1.86-1.19,3.5-3.05,3.05c-0.87-0.21-1.59-0.93-1.8-1.8c-0.45-1.86,1.19-3.5,3.05-3.05
				C377.5,213.01,378.21,213.73,378.42,214.6z"/>
		</g>
		<g class="st0">
			<g class="st1">
				<g>
					<g>
						<g>
							<g>
								<rect x="226.83" y="271.33" class="st2" width="1.47" height="11.5"/>
								<rect x="233.18" y="271.33" class="st2" width="1.47" height="11.5"/>
							</g>
							<rect x="225.23" y="281.72" class="st2" width="4.65" height="1.47"/>
							<rect x="231.59" y="281.72" class="st2" width="4.65" height="1.47"/>
						</g>
						<path class="st8" d="M254.72,202.11c-11.43-15.44-49.69-18.94-61.81,6.62c-13.42,28.31,2.21,49.64,25.37,61.41
							c23.17,11.77,38.24,4.05,43.39,2.94c-6.25-6.62-5.15-22.06-2.21-32.36C262.41,230.42,266.16,217.55,254.72,202.11z"/>
						<path class="st3" d="M224.02,225.13c0,0-3.69,6.22-3.75,7.4c-0.06,1.18,3.69,6.93,4.5,6.93c0.81,0,4.5-5.86,4.5-6.93
							c0-1.07-3.69-7.4-3.69-7.4H224.02z"/>
						<path class="st5" d="M254.72,202.11c-11.43-15.44-49.69-18.94-61.81,6.62c-13.42,28.31,2.21,49.64,25.37,61.41
							c23.17,11.77,38.24,4.05,43.39,2.94c-6.25-6.62-5.15-22.06-2.21-32.36C262.41,230.42,266.16,217.55,254.72,202.11z"/>
					</g>
					<path class="st9" d="M261.36,230.06c4.52,4.68,9.98,14.74,5.21,24.01c-4.77,9.26-15.97,7.46-15.97,7.46s-4.58-8.87-0.44-18.21
						C254.3,233.97,256.28,233.36,261.36,230.06z"/>
					<path class="st9" d="M188.59,235.33c-2.9,6.52-4.28,17.08,1.97,23.33c8.08,8.08,20.52,7.33,20.52,7.33s-2.32-13.95-7.93-19.74
						C197.55,240.46,191.48,236.51,188.59,235.33z"/>
				</g>
			</g>
			<path class="st7" d="M244.39,222.92c0.45,1.86-1.19,3.5-3.05,3.05c-0.87-0.21-1.59-0.93-1.8-1.8c-0.45-1.86,1.19-3.5,3.05-3.05
				C243.46,221.33,244.17,222.05,244.39,222.92z"/>
			
				<ellipse transform="matrix(0.7071 -0.7071 0.7071 0.7071 -97.2159 212.3904)" class="st7" cx="207.77" cy="223.55" rx="2.51" ry="2.47"/>
		</g>
		<g class="st0">
			<g class="st1">
				<g>
					<g>
						<g>
							<rect x="418.9" y="175.42" class="st2" width="1.55" height="12.12"/>
							<rect x="425.58" y="175.42" class="st2" width="1.55" height="12.12"/>
						</g>
						<rect x="417.2" y="186.38" class="st2" width="4.9" height="1.55"/>
						<rect x="423.91" y="186.38" class="st2" width="4.9" height="1.55"/>
					</g>
					<path class="st10" d="M448.29,102.46c-12.05-16.28-52.38-19.96-65.16,6.98c-14.15,29.85,2.33,52.33,26.75,64.73
						c24.42,12.4,40.31,4.26,45.74,3.1c-6.59-6.98-5.43-23.26-2.33-34.11C456.4,132.3,460.35,118.74,448.29,102.46z"/>
					<path class="st11" d="M455.3,131.93c4.76,4.93,10.52,15.54,5.49,25.3c-5.03,9.76-16.83,7.86-16.83,7.86s-4.83-9.35-0.47-19.2
						C447.85,136.04,449.94,135.4,455.3,131.93z"/>
					<path class="st3" d="M415.97,127.19c0,0-3.69,6.22-3.75,7.4c-0.06,1.18,3.69,6.93,4.5,6.93c0.81,0,4.5-5.86,4.5-6.93
						c0-1.07-3.69-7.4-3.69-7.4H415.97z"/>
					<g>
						<defs>
							<path id="SVGID_1_" d="M448.29,102.46c-12.05-16.28-52.38-19.96-65.16,6.98c-14.15,29.85,2.33,52.33,26.75,64.73
								c24.42,12.4,40.31,4.26,45.74,3.1c-6.59-6.98-5.43-23.26-2.33-34.11C456.4,132.3,460.35,118.74,448.29,102.46z"/>
						</defs>
						<clipPath id="SVGID_2_">
							<use xlink:href="#SVGID_1_"  style="overflow:visible;"/>
						</clipPath>
						<path class="st12" d="M444.19,176.69c0,14.02-12.29,25.39-27.44,25.39c-15.16,0-27.44-11.37-27.44-25.39
							c0-14.02,12.29-25.39,27.44-25.39C431.9,151.3,444.19,162.66,444.19,176.69z"/>
					</g>
					<path class="st11" d="M378.58,137.48c-3.06,6.87-4.51,18,2.08,24.59c8.52,8.52,21.63,7.73,21.63,7.73s-2.44-14.7-8.35-20.81
						C388.03,142.89,381.63,138.72,378.58,137.48z"/>
				</g>
			</g>
			
				<ellipse transform="matrix(0.7071 -0.7071 0.7071 0.7071 37.4677 343.8591)" class="st7" cx="433.81" cy="126.7" rx="2.51" ry="2.47"/>
			<path class="st7" d="M402.05,126.08c0.45,1.86-1.19,3.5-3.05,3.05c-0.87-0.21-1.59-0.93-1.8-1.8c-0.45-1.86,1.19-3.5,3.05-3.05
				C401.12,124.49,401.84,125.21,402.05,126.08z"/>
		</g>
		<g>
			<g>
				<g>
					<rect x="143.92" y="168.43" class="st2" width="1.64" height="12.83"/>
					<rect x="151" y="168.43" class="st2" width="1.64" height="12.83"/>
				</g>
				<rect x="142.12" y="180.03" class="st2" width="5.19" height="1.64"/>
				<rect x="149.22" y="180.03" class="st2" width="5.19" height="1.64"/>
			</g>
			<g>
				<g>
					<polygon class="st3" points="198.27,134.88 216.23,139.95 205.56,143.73 213.97,149.45 196.7,150.17 					"/>
					<path class="st13" d="M101.19,110.89c6.09-3.72,16.39-5.18,23.39,0.22c9.05,6.97,9.91,19.41,9.91,19.41s-16.11,3.51-22.57-1.3
						C105.45,124.4,101.19,115.61,101.19,110.89z"/>
					<path class="st10" d="M159.46,96.27c18.93-3.28,49.02,20.61,40.15,47.46c-9.84,29.75-35.87,34.39-60.75,26.91
						c-24.88-7.48-30.46-23.48-33.42-27.83c9.09-0.47,18.96-12.41,23.94-21.89C134.35,111.45,140.53,99.55,159.46,96.27z"/>
					<path class="st5" d="M159.46,96.27c18.93-3.28,49.02,20.61,40.15,47.46c-9.84,29.75-35.87,34.39-60.75,26.91
						c-24.88-7.48-30.46-23.48-33.42-27.83c9.09-0.47,18.96-12.41,23.94-21.89C134.35,111.45,140.53,99.55,159.46,96.27z"/>
					<path class="st11" d="M134.51,129.21c3.49-5.49,6.84-16.44,0.32-24.56c-6.52-8.12-17.13-4.12-17.13-4.12s-6.69,9.93-0.77,18.26
						C122.85,127.12,128.87,127,134.51,129.21z"/>
				</g>
			</g>
			
				<ellipse transform="matrix(0.7071 -0.7071 0.7071 0.7071 -38.1723 171.3416)" class="st2" cx="187.75" cy="131.75" rx="2.51" ry="2.47"/>
		</g>
		<g class="st0">
			<g class="st1">
				<g>
					<g>
						<g>
							<rect x="290.37" y="168.81" class="st2" width="1.64" height="12.83"/>
							<rect x="297.45" y="168.81" class="st2" width="1.64" height="12.83"/>
						</g>
						<rect x="288.57" y="180.41" class="st2" width="5.19" height="1.64"/>
						<rect x="295.68" y="180.41" class="st2" width="5.19" height="1.64"/>
					</g>
					<g>
						<polygon class="st3" points="254.22,129.59 236.23,137.11 248.86,139.16 241.92,145.99 258.31,143.71 						"/>
						<path class="st9" d="M269.22,161.38c41.23,30.84,75.83-14.86,75.83-14.86s-10.36-4.36-16.11-13.08
							c-8.92-13.54-18.32-33.77-31.75-36.8C259.57,88.13,231.79,133.38,269.22,161.38z"/>
						<g>
							<defs>
								<path id="SVGID_3_" d="M269.22,161.38c41.23,30.84,75.83-14.86,75.83-14.86s-10.36-4.36-16.11-13.08
									c-8.92-13.54-18.32-33.77-31.75-36.8C259.57,88.13,231.79,133.38,269.22,161.38z"/>
							</defs>
							<clipPath id="SVGID_4_">
								<use xlink:href="#SVGID_3_"  style="overflow:visible;"/>
							</clipPath>
							<path class="st14" d="M325.57,163.5c5.7,13.71-1.69,29.82-16.51,35.98c-14.82,6.16-31.45,0.04-37.15-13.67
								c-5.7-13.71,1.69-29.82,16.51-35.98C303.24,143.68,319.87,149.8,325.57,163.5z"/>
						</g>
					</g>
				</g>
				<path class="st8" d="M307.61,122.75c-12.81-3.56-18.11,14.19-7.72,22.76c11.65,9.61,24.27,1.02,26.24,0.42
					C320.12,138.43,320.43,126.31,307.61,122.75z"/>
			</g>
			
				<ellipse transform="matrix(0.7071 -0.7071 0.7071 0.7071 -10.8735 223.3213)" class="st7" cx="264.14" cy="124.79" rx="2.51" ry="2.47"/>
		</g>
		<g class="st0">
			<g class="st1">
				<path class="st4" d="M358.29,387.88c0,19.01-9.93,28.01-22.19,28.01c-12.25,0-22.19-9-22.19-28.01
					c0-14.71,9.93-34.83,22.19-34.83C348.35,353.04,358.29,372.67,358.29,387.88z"/>
				<g>
					<defs>
						<path id="SVGID_5_" d="M358.29,387.88c0,19.01-9.93,28.01-22.19,28.01c-12.25,0-22.19-9-22.19-28.01
							c0-14.71,9.93-34.83,22.19-34.83C348.35,353.04,358.29,372.67,358.29,387.88z"/>
					</defs>
					<clipPath id="SVGID_6_">
						<use xlink:href="#SVGID_5_"  style="overflow:visible;"/>
					</clipPath>
					<g class="st15">
						<g>
							<g>
								<path class="st16" d="M335.02,368.94c0,2.28-1.85,4.13-4.13,4.13c-2.28,0-4.13-1.85-4.13-4.13c0-2.28,1.85-4.13,4.13-4.13
									C333.17,364.81,335.02,366.66,335.02,368.94z"/>
							</g>
							<g>
								
									<ellipse transform="matrix(0.7071 -0.7071 0.7071 0.7071 -156.9514 351.7536)" class="st16" cx="346.13" cy="365.33" rx="7.74" ry="7.74"/>
							</g>
							<g>
								<circle class="st16" cx="337.58" cy="378.89" r="1.98"/>
							</g>
							<g>
								<circle class="st16" cx="317.63" cy="377.78" r="5.87"/>
							</g>
							<g>
								<path class="st16" d="M333.51,382.17c0,0.72-0.59,1.31-1.31,1.31c-0.72,0-1.31-0.59-1.31-1.31c0-0.72,0.59-1.31,1.31-1.31
									C332.92,380.86,333.51,381.45,333.51,382.17z"/>
							</g>
							<g>
								<path class="st16" d="M342.58,386.97c0,0.67-0.55,1.22-1.22,1.22c-0.67,0-1.22-0.55-1.22-1.22c0-0.67,0.55-1.22,1.22-1.22
									C342.03,385.75,342.58,386.3,342.58,386.97z"/>
							</g>
							<g>
								<path class="st16" d="M335.77,356.55c0,2.7-2.19,4.89-4.89,4.89c-2.7,0-4.89-2.19-4.89-4.89c0-2.7,2.19-4.89,4.89-4.89
									C333.59,351.66,335.77,353.85,335.77,356.55z"/>
							</g>
						</g>
					</g>
				</g>
			</g>
			<g class="st1">
				<path class="st10" d="M415.38,387.88c0,19.01-9.93,28.01-22.19,28.01c-12.25,0-22.19-9-22.19-28.01
					c0-14.71,9.93-34.83,22.19-34.83C405.44,353.04,415.38,372.67,415.38,387.88z"/>
				<g>
					<defs>
						<path id="SVGID_7_" d="M415.38,387.88c0,19.01-9.93,28.01-22.19,28.01c-12.25,0-22.19-9-22.19-28.01
							c0-14.71,9.93-34.83,22.19-34.83C405.44,353.04,415.38,372.67,415.38,387.88z"/>
					</defs>
					<clipPath id="SVGID_8_">
						<use xlink:href="#SVGID_7_"  style="overflow:visible;"/>
					</clipPath>
					<g class="st17">
						<g>
							<circle class="st18" cx="387.98" cy="368.94" r="4.13"/>
							
								<ellipse transform="matrix(0.229 -0.9734 0.9734 0.229 -44.7432 674.1777)" class="st18" cx="403.22" cy="365.33" rx="7.74" ry="7.74"/>
							<circle class="st18" cx="394.67" cy="378.89" r="1.98"/>
							<path class="st18" d="M380.59,377.78c0,3.24-2.63,5.87-5.87,5.87c-3.24,0-5.87-2.63-5.87-5.87s2.63-5.87,5.87-5.87
								C377.96,371.91,380.59,374.54,380.59,377.78z"/>
							<path class="st18" d="M390.59,382.17c0,0.72-0.59,1.31-1.31,1.31c-0.72,0-1.31-0.59-1.31-1.31c0-0.72,0.59-1.31,1.31-1.31
								C390.01,380.86,390.59,381.45,390.59,382.17z"/>
							<path class="st18" d="M399.67,386.97c0,0.67-0.55,1.22-1.22,1.22s-1.22-0.55-1.22-1.22c0-0.67,0.55-1.22,1.22-1.22
								S399.67,386.3,399.67,386.97z"/>
							<path class="st18" d="M392.86,356.55c0,2.7-2.19,4.89-4.89,4.89s-4.89-2.19-4.89-4.89c0-2.7,2.19-4.89,4.89-4.89
								S392.86,353.85,392.86,356.55z"/>
						</g>
					</g>
				</g>
			</g>
			<g class="st1">
				<path class="st9" d="M472.46,387.88c0,19.01-9.93,28.01-22.19,28.01c-12.25,0-22.19-9-22.19-28.01
					c0-14.71,9.93-34.83,22.19-34.83C462.53,353.04,472.46,372.67,472.46,387.88z"/>
				<g>
					<defs>
						<path id="SVGID_9_" d="M472.46,387.88c0,19.01-9.93,28.01-22.19,28.01c-12.25,0-22.19-9-22.19-28.01
							c0-14.71,9.93-34.83,22.19-34.83C462.53,353.04,472.46,372.67,472.46,387.88z"/>
					</defs>
					<clipPath id="SVGID_10_">
						<use xlink:href="#SVGID_9_"  style="overflow:visible;"/>
					</clipPath>
					<g class="st19">
						<g>
							<g>
								<path class="st8" d="M449.2,368.94c0,2.28-1.85,4.13-4.13,4.13c-2.28,0-4.13-1.85-4.13-4.13c0-2.28,1.85-4.13,4.13-4.13
									C447.35,364.81,449.2,366.66,449.2,368.94z"/>
							</g>
							<g>
								
									<ellipse transform="matrix(0.7071 -0.7071 0.7071 0.7071 -123.5097 432.489)" class="st8" cx="460.31" cy="365.33" rx="7.74" ry="7.74"/>
							</g>
							<g>
								<circle class="st8" cx="451.75" cy="378.89" r="1.98"/>
							</g>
							<g>
								<circle class="st8" cx="431.8" cy="377.78" r="5.87"/>
							</g>
							<g>
								<path class="st8" d="M447.68,382.17c0,0.72-0.59,1.31-1.31,1.31c-0.72,0-1.31-0.59-1.31-1.31c0-0.72,0.59-1.31,1.31-1.31
									C447.1,380.86,447.68,381.45,447.68,382.17z"/>
							</g>
							<g>
								<path class="st8" d="M456.76,386.97c0,0.67-0.55,1.22-1.22,1.22c-0.67,0-1.22-0.55-1.22-1.22c0-0.67,0.55-1.22,1.22-1.22
									C456.21,385.75,456.76,386.3,456.76,386.97z"/>
							</g>
							<g>
								<path class="st8" d="M449.95,356.55c0,2.7-2.19,4.89-4.89,4.89c-2.7,0-4.89-2.19-4.89-4.89c0-2.7,2.19-4.89,4.89-4.89
									C447.76,351.66,449.95,353.85,449.95,356.55z"/>
							</g>
						</g>
					</g>
				</g>
			</g>
		</g>
		<g class="st0">
			<g class="st1">
				<g>
					<g>
						<path class="st20" d="M240.03,371.26c0.71-17.36-19.05-28.63-32.44-35.36c-16.14-8.11-33.77-12.54-51.8-13.19
							c-6.44-0.23-6.43,9.77,0,10c15.05,0.55,30.02,3.95,43.68,10.34c6.69,3.13,13.16,6.86,19.11,11.24
							c5.6,4.11,11.75,9.44,11.45,16.98C229.77,377.69,239.77,377.68,240.03,371.26L240.03,371.26z"/>
					</g>
				</g>
				<g>
					<g>
						<path class="st20" d="M209.93,329c-21.81-1.82-43.5,5.88-60.12,19.95c-12.9,10.92-36.24,40.64-17.47,56.03
							c4.94,4.05,12.05-2.99,7.07-7.07c-8.06-6.61-1.28-18.52,3.05-25.43c4.67-7.46,10.88-14.06,17.98-19.27
							c14.31-10.5,31.78-15.68,49.48-14.2C216.34,339.54,216.3,329.54,209.93,329L209.93,329z"/>
					</g>
				</g>
				<g>
					<g>
						<path class="st21" d="M158.94,345.52c14.5-3.22,29.09,1.45,41.42,9.12c11.26,7.01,26.86,19.13,22.53,34.31
							c-1.77,6.2,7.88,8.85,9.64,2.66c5.4-18.95-10-34.13-24.33-43.79c-15.23-10.26-33.66-15.99-51.92-11.94
							C150,337.27,152.66,346.91,158.94,345.52L158.94,345.52z"/>
					</g>
				</g>
				<g>
					<g>
						<path class="st20" d="M196.79,334.82c7.7,5.44,9.45,16.47,10.79,25.16c1.02,6.65-0.61,11.37-3.32,17.34
							c-2.73,5.99-5.46,11.98-8.19,17.98c-2.65,5.81,5.97,10.9,8.63,5.05c3.46-7.59,7.08-15.12,10.35-22.79
							c2.92-6.84,3.36-12.91,2.17-20.23c-1.93-11.86-5.08-23.85-15.38-31.13C196.57,322.46,191.57,331.13,196.79,334.82
							L196.79,334.82z"/>
					</g>
				</g>
				<g>
					<g>
						<path class="st21" d="M180.86,322.08c-19.4-1.77-28.98,19.93-34.27,35.01c-3.17,9.03-5.2,18.47-6.15,27.99
							c-0.82,8.17,0.62,17.44,8.85,21.29c5.79,2.71,10.88-5.91,5.05-8.63c-6.29-2.94-4.1-12.18-3.24-17.66
							c1.09-6.91,2.82-13.73,5.13-20.33c3.77-10.78,10.46-28.96,24.63-27.67C187.27,332.67,187.23,322.66,180.86,322.08
							L180.86,322.08z"/>
					</g>
				</g>
				<g>
					<g>
						<path class="st21" d="M142.9,349.4c14.49,0.41,28.68,4.81,41.29,11.9c8.37,4.71,21.57,17.31,10.82,26.68
							c-4.86,4.24,2.24,11.28,7.07,7.07c12.9-11.24,5.19-29.48-6.3-38.13c-14.71-11.09-34.63-17-52.88-17.52
							C136.46,339.21,136.47,349.21,142.9,349.4L142.9,349.4z"/>
					</g>
				</g>
				<g>
					<g>
						<path class="st20" d="M221.15,341.97c-24.57,1.19-50.7-3.16-73.38,8.88c-18.36,9.75-30.04,32.04-20.26,51.87
							c2.85,5.77,11.48,0.71,8.63-5.05c-8.7-17.63,7.04-35.2,22.83-40.93c19.9-7.22,41.5-3.77,62.17-4.77
							C227.55,351.66,227.59,341.66,221.15,341.97L221.15,341.97z"/>
					</g>
				</g>
				<g>
					<g>
						<path class="st21" d="M221.65,342.57c-19.21-6.36-40.05-0.95-56.08,10.71c-13.85,10.08-31.95,26.89-28.57,45.78
							c1.13,6.32,10.77,3.64,9.64-2.66c-1.46-8.14,4.71-15.64,9.75-21.3c5.04-5.65,10.62-10.87,16.93-15.08
							c13.52-9.01,29.92-13.03,45.66-7.82C225.11,354.24,227.74,344.58,221.65,342.57L221.65,342.57z"/>
					</g>
				</g>
				<g>
					<g>
						<path class="st21" d="M205.63,343.14c-7.75-0.66-16.04,0.02-22.89,4c-7.23,4.2-10.96,11.58-12.66,19.53
							c-0.93,4.36-1.48,8.81-2.04,13.22c-0.53,4.17-1.41,8.64-0.49,12.81c1.74,7.8,9.24,11.19,16.14,13.39
							c6.15,1.96,8.78-7.69,2.66-9.64c-5.31-1.69-9.52-3.29-9.11-9.57c0.42-6.33,1.32-12.91,2.82-19.08
							c1.39-5.73,4.04-10.66,9.69-13.05c4.97-2.1,10.6-2.06,15.88-1.62C212.05,353.69,212.01,343.68,205.63,343.14L205.63,343.14z"
							/>
					</g>
				</g>
				<g>
					<g>
						<path class="st20" d="M151.98,363.16c27.64-6.69,55.94,8.86,64.91,35.88c2.02,6.08,11.68,3.47,9.64-2.66
							c-10.72-32.28-44.09-50.87-77.21-42.86C143.07,355.03,145.71,364.67,151.98,363.16L151.98,363.16z"/>
					</g>
				</g>
				<g>
					<g>
						<path class="st21" d="M181.53,348.71c5.85,0.63,10.76,5.36,12.44,10.87c2.08,6.83-2.03,13.16-6.64,17.87
							c-10.61,10.83-24.62,19.01-38.61,24.61c-5.9,2.36-3.33,12.04,2.66,9.64c9.96-3.99,19.46-8.88,28.24-15.06
							c7.95-5.59,16.56-12.03,21.4-20.67c8.94-15.97-1.49-35.32-19.49-37.26C175.14,338.02,175.19,348.03,181.53,348.71
							L181.53,348.71z"/>
					</g>
				</g>
				<g>
					<g>
						<path class="st21" d="M193.56,349.51c-2,9.85-10.79,16.59-18.52,22.19c-8.44,6.11-17.61,11.21-27.29,15.08
							c-5.9,2.36-3.33,12.04,2.66,9.64c11.62-4.65,22.53-10.59,32.5-18.19c8.84-6.74,17.97-14.64,20.29-26.06
							C204.48,345.89,194.84,343.2,193.56,349.51L193.56,349.51z"/>
					</g>
				</g>
				<g>
					<g>
						<path class="st21" d="M190.09,353c-15.85-1.49-22.75,16.2-25.24,28.87c-1.31,6.62-0.85,13.41,3.77,18.69
							c4.29,4.9,10.72,7.27,16.88,8.75c6.25,1.5,8.92-8.14,2.66-9.64c-3.64-0.87-7.58-1.89-10.57-4.28
							c-4.07-3.26-3.78-7.94-2.7-12.61c1.79-7.74,4.99-20.73,15.2-19.77C196.49,363.6,196.45,353.6,190.09,353L190.09,353z"/>
					</g>
				</g>
				<g>
					<g>
						<path class="st21" d="M179.27,351.51c-15.91-1.27-22.53,16.41-24.89,29.15c-1.23,6.63-0.71,13.43,3.96,18.65
							c4.34,4.85,10.8,7.15,16.99,8.54c6.27,1.41,8.94-8.23,2.66-9.64c-3.64-0.82-7.54-1.77-10.57-4.07
							c-4.2-3.18-4.04-7.84-3.03-12.58c1.65-7.72,4.69-20.86,14.87-20.05C185.68,362.02,185.65,352.02,179.27,351.51L179.27,351.51z
							"/>
					</g>
				</g>
				<g>
					<g>
						<path class="st20" d="M232.75,363.92c-16.95-3.77-35.16-2.31-50.3,6.66c-12.87,7.63-26.53,23.84-21.27,39.81
							c2,6.08,11.66,3.48,9.64-2.66c-4.13-12.54,9.32-24.8,19.23-29.94c12.3-6.38,26.67-7.2,40.04-4.23
							C236.36,374.96,239.04,365.32,232.75,363.92L232.75,363.92z"/>
					</g>
				</g>
				<g>
					<g>
						<path class="st20" d="M196.54,337.33c5.33,6.55-0.33,15.36-5.82,19.5c-6.42,4.85-14.55,7.73-22,10.49
							c-17.16,6.34-35.1,10.44-53.31,12.15c-6.35,0.6-6.41,10.6,0,10c23.29-2.19,45.94-7.84,67.42-17.11
							c8.55-3.69,17.55-8.41,22.35-16.79c4.69-8.18,4.42-17.96-1.56-25.31C199.55,325.26,192.51,332.37,196.54,337.33L196.54,337.33
							z"/>
					</g>
				</g>
				<g>
					<g>
						<path class="st22" d="M193.01,329.12c-0.38,5.95,2.87,10.11,5.47,15.11c3.1,5.96,3.68,13.51,3.87,20.13
							c0.37,13.2-8.07,22.13-19.03,28.21c-5.63,3.12-0.59,11.76,5.05,8.63c11.41-6.33,21.67-16.27,23.59-29.73
							c1.05-7.37,0.05-15.31-1.37-22.58c-0.67-3.42-1.82-6.63-3.46-9.71c-1.75-3.28-4.35-6.14-4.1-10.06
							C203.42,322.69,193.42,322.72,193.01,329.12L193.01,329.12z"/>
					</g>
				</g>
			</g>
			<g class="st1">
				<path class="st23" d="M191.65,362.89c5.59,15.65,0.06,25.98-10.03,29.58c-10.09,3.6-20.91-0.88-26.5-16.53
					c-4.33-12.11-2.07-31.59,8.02-35.2C173.23,337.14,187.18,350.37,191.65,362.89z"/>
				<g>
					<defs>
						<path id="SVGID_11_" d="M191.65,362.89c5.59,15.65,0.06,25.98-10.03,29.58c-10.09,3.6-20.91-0.88-26.5-16.53
							c-4.33-12.11-2.07-31.59,8.02-35.2C173.23,337.14,187.18,350.37,191.65,362.89z"/>
					</defs>
					<clipPath id="SVGID_12_">
						<use xlink:href="#SVGID_11_"  style="overflow:visible;"/>
					</clipPath>
					<g class="st24">
						<g>
							<path class="st25" d="M166.93,354.15c0.67,1.88-0.31,3.94-2.18,4.61c-1.88,0.67-3.94-0.31-4.61-2.18
								c-0.67-1.88,0.31-3.94,2.18-4.61C164.19,351.29,166.26,352.27,166.93,354.15z"/>
							
								<ellipse transform="matrix(0.4291 -0.9033 0.9033 0.4291 -214.338 356.7023)" class="st25" cx="175.01" cy="347.91" rx="6.76" ry="6.76"/>
							
								<ellipse transform="matrix(1.517154e-03 -1 1 1.517154e-03 -189.8795 532.9944)" class="st25" cx="171.96" cy="361.58" rx="1.73" ry="1.73"/>
							<path class="st25" d="M160.05,364.81c0.95,2.67-0.44,5.61-3.11,6.56c-2.67,0.95-5.61-0.44-6.56-3.11
								c-0.95-2.67,0.44-5.61,3.11-6.56C156.16,360.75,159.1,362.14,160.05,364.81z"/>
							<path class="st25" d="M169.58,365.48c0.21,0.59-0.1,1.25-0.69,1.46c-0.59,0.21-1.25-0.1-1.46-0.69
								c-0.21-0.59,0.1-1.25,0.69-1.46C168.71,364.58,169.36,364.89,169.58,365.48z"/>
							<path class="st25" d="M178.46,366.76c0.2,0.56-0.09,1.17-0.65,1.36c-0.56,0.2-1.17-0.09-1.36-0.65
								c-0.2-0.56,0.09-1.17,0.65-1.36C177.65,365.92,178.26,366.21,178.46,366.76z"/>
							<path class="st25" d="M163.91,343.73c0.79,2.22-0.36,4.66-2.58,5.46c-2.22,0.79-4.66-0.36-5.46-2.58
								c-0.79-2.22,0.36-4.66,2.58-5.46C160.67,340.35,163.12,341.51,163.91,343.73z"/>
						</g>
					</g>
				</g>
			</g>
			<g class="st1">
				<path class="st16" d="M218.85,368.18c-1.93,16.5-11.47,23.31-22.11,22.06c-10.64-1.25-18.35-10.07-16.41-26.58
					c1.5-12.77,12.17-29.23,22.81-27.98C213.78,336.93,220.4,354.98,218.85,368.18z"/>
				<g>
					<defs>
						<path id="SVGID_13_" d="M218.85,368.18c-1.93,16.5-11.47,23.31-22.11,22.06c-10.64-1.25-18.35-10.07-16.41-26.58
							c1.5-12.77,12.17-29.23,22.81-27.98C213.78,336.93,220.4,354.98,218.85,368.18z"/>
					</defs>
					<clipPath id="SVGID_14_">
						<use xlink:href="#SVGID_13_"  style="overflow:visible;"/>
					</clipPath>
					<g class="st26">
						<g>
							
								<ellipse transform="matrix(0.7869 -0.617 0.617 0.7869 -173.3421 195.8965)" class="st4" cx="197" cy="348.96" rx="3.61" ry="3.61"/>
							<path class="st4" d="M217.31,348.17c-0.43,3.71-3.79,6.36-7.5,5.93c-3.71-0.43-6.36-3.79-5.93-7.5
								c0.43-3.71,3.79-6.36,7.5-5.93C215.09,341.1,217.74,344.46,217.31,348.17z"/>
							<path class="st4" d="M203.51,358.47c-0.11,0.95-0.97,1.63-1.92,1.52c-0.95-0.11-1.63-0.97-1.52-1.92
								c0.11-0.95,0.97-1.63,1.92-1.52C202.94,356.67,203.62,357.53,203.51,358.47z"/>
							<path class="st4" d="M189.69,355.88c-0.33,2.82-2.88,4.83-5.7,4.5c-2.82-0.33-4.83-2.88-4.5-5.7c0.33-2.82,2.88-4.83,5.7-4.5
								C188,350.51,190.02,353.06,189.69,355.88z"/>
							<path class="st4" d="M197.92,360.71c-0.07,0.63-0.64,1.08-1.27,1c-0.63-0.07-1.08-0.64-1-1.27c0.07-0.63,0.64-1.08,1.27-1
								C197.55,359.52,198,360.08,197.92,360.71z"/>
							<path class="st4" d="M205.31,365.8c-0.07,0.59-0.6,1-1.18,0.94c-0.59-0.07-1-0.6-0.94-1.18c0.07-0.59,0.6-1,1.18-0.94
								C204.96,364.68,205.38,365.21,205.31,365.8z"/>
							<path class="st4" d="M202.5,338.7c-0.27,2.34-2.4,4.02-4.74,3.74c-2.34-0.27-4.02-2.4-3.74-4.74
								c0.27-2.34,2.4-4.02,4.74-3.74C201.1,334.24,202.78,336.36,202.5,338.7z"/>
						</g>
					</g>
				</g>
			</g>
			<g class="st1">
				<g>
					<g>
						<path class="st27" d="M251.81,333.21c-23.63,41.38-71.69,57.24-116.72,60.31c-6.39,0.44-6.43,10.44,0,10
							c48.57-3.32,99.9-20.68,125.35-65.26C263.64,332.66,255,327.62,251.81,333.21L251.81,333.21z"/>
					</g>
				</g>
				<g>
					<g>
						<path class="st28" d="M116.69,322.99c1.74,23.5,14.6,44.35,32.19,59.54c19.73,17.03,44.17,26.92,68.22,36.16
							c6.01,2.31,8.61-7.35,2.66-9.64c-39.09-15.03-89.5-37.83-93.07-86.06C126.22,316.61,116.21,316.56,116.69,322.99
							L116.69,322.99z"/>
					</g>
				</g>
				<g>
					<g>
						<path class="st29" d="M102.84,353.32c1.3,12.4,13.88,19.61,23.49,25.7c10.8,6.84,22.43,12.37,34.49,16.6
							c24.52,8.61,51.03,11.47,76.8,8.18c6.3-0.8,6.38-10.81,0-10c-22.81,2.91-45.9,0.99-67.89-5.76
							c-10.89-3.34-21.37-7.83-31.29-13.42c-4.78-2.69-9.43-5.63-13.9-8.81c-4.03-2.86-11.12-6.98-11.7-12.48
							C112.18,346.98,102.17,346.91,102.84,353.32L102.84,353.32z"/>
					</g>
				</g>
				<g>
					<g>
						<path class="st28" d="M267.66,341.36c-8.44,26.63-40.27,32.13-64.16,35.32c-29.95,4-60.23,5.32-90.42,4.2
							c-6.44-0.24-6.43,9.76,0,10c33.21,1.22,66.48-0.56,99.36-5.45c26.27-3.9,55.96-13.34,64.86-41.42
							C279.25,337.87,269.6,335.24,267.66,341.36L267.66,341.36z"/>
					</g>
				</g>
				<g>
					<g>
						<path class="st30" d="M169.57,323.42c20.42,1.79,40.78,12.42,57.44,23.91c12.83,8.85,25.81,26.29,19.75,42.85
							c-2.21,6.05,7.45,8.66,9.64,2.66c6.9-18.85-5.82-40.15-20.37-51.25c-9.53-7.27-20.41-13.1-31.27-18.12
							c-11.23-5.2-22.81-8.96-35.19-10.04C163.16,312.86,163.2,322.87,169.57,323.42L169.57,323.42z"/>
					</g>
				</g>
				<g>
					<g>
						<path class="st27" d="M223.69,313.29c-31.05,1.12-63.54,8.72-90.34,24.91c-11.28,6.81-21.78,15.64-28.67,27
							c-5.81,9.57-11.95,25.51-2.5,34.76c4.6,4.5,11.68-2.56,7.07-7.07c-3.89-3.81-1.23-11.05,0.43-15.38
							c1.94-5.05,4.91-9.79,8.41-13.9c7.4-8.69,16.88-15.24,26.93-20.49c24.06-12.57,51.66-18.85,78.67-19.83
							C230.1,323.06,230.14,313.05,223.69,313.29L223.69,313.29z"/>
					</g>
				</g>
				<g>
					<g>
						<path class="st30" d="M150.81,310.48c-19.75,10.82-34.87,29.93-40.08,51.94c-2.98,12.6-1.37,24.68,6.66,35.05
							c8.08,10.43,19.92,16.44,31.65,21.85c5.8,2.68,10.89-5.94,5.05-8.63c-9.73-4.49-19.8-9.19-27.12-17.26
							c-8.25-9.1-9.07-19.96-5.79-31.44c5.24-18.34,18.02-33.75,34.67-42.87C161.51,316.02,156.47,307.38,150.81,310.48
							L150.81,310.48z"/>
					</g>
				</g>
				<g>
					<g>
						<path class="st30" d="M116.39,326.86c-7.09,25.54,9.99,52.06,28.35,68.42c20.55,18.3,46.78,28.19,73.42,33.62
							c6.28,1.28,8.97-8.36,2.66-9.64c-23.85-4.86-47.71-13.14-66.61-28.98c-16.63-13.94-34.57-37.75-28.17-60.76
							C127.76,323.31,118.11,320.66,116.39,326.86L116.39,326.86z"/>
					</g>
				</g>
				<g>
					<g>
						<path class="st28" d="M244.58,318.14c2.3,13.29-5.11,25.9-13.34,35.72c-7.9,9.43-17.27,17.96-27.16,25.26
							c-19.78,14.61-42.95,24.77-67.82,25.08c-6.43,0.08-6.45,10.08,0,10c28.25-0.35,54.56-12.19,76.62-29.29
							c20.84-16.16,46.35-40.41,41.34-69.43C253.13,309.15,243.49,311.83,244.58,318.14L244.58,318.14z"/>
					</g>
				</g>
				<g>
					<g>
						<path class="st30" d="M226.73,316.18c6.07,22.69,0.34,46.94-13.3,65.8c-13.04,18.04-32.83,30.4-53.81,37.1
							c-6.11,1.95-3.5,11.61,2.66,9.64c23.64-7.55,45.14-21.44,59.79-41.7c15.15-20.95,21.02-48.42,14.31-73.51
							C234.71,307.31,225.06,309.95,226.73,316.18L226.73,316.18z"/>
					</g>
				</g>
				<g>
					<g>
						<path class="st28" d="M189.25,307.74c7.77,6.76,17.15,10.96,25.32,17.14c8.53,6.45,13.49,15.73,14.57,26.35
							c2.36,23.11-11.48,43.3-23.86,61.47c-3.63,5.33,5.03,10.34,8.63,5.05c13.73-20.15,28.06-42.5,25.06-68.03
							c-1.27-10.82-5.63-21.22-13.64-28.79c-8.66-8.18-20.07-12.48-29.01-20.26C191.48,296.47,184.38,303.51,189.25,307.74
							L189.25,307.74z"/>
					</g>
				</g>
				<g>
					<g>
						<path class="st30" d="M167.8,307.1c19.07,10.32,38.71,20.91,52.9,37.74c10.31,12.21,26.08,42.46,5.71,53.09
							c-5.71,2.98-0.66,11.61,5.05,8.63c23.53-12.27,13.81-44.46,1.94-61.49c-14.96-21.47-38.05-34.42-60.56-46.6
							C167.18,295.4,162.13,304.03,167.8,307.1L167.8,307.1z"/>
					</g>
				</g>
				<g>
					<g>
						<path class="st30" d="M195.74,311.63c-39.44,6.99-84.29,19.66-100.39,60.77c-2.35,5.99,7.32,8.59,9.64,2.66
							c14.58-37.24,58.26-47.55,93.41-53.79C204.73,320.15,202.05,310.51,195.74,311.63L195.74,311.63z"/>
					</g>
				</g>
				<g>
					<g>
						<path class="st27" d="M106.38,330.39c-3.54,11.27,2.8,23.02,8.16,32.68c5.18,9.35,11.57,18.09,18.8,25.96
							c14.73,16.03,33.18,28.21,53.58,35.74c6.05,2.23,8.65-7.43,2.66-9.64c-17.83-6.58-33.94-17.28-47.11-30.98
							c-6.49-6.75-12.22-14.19-17.04-22.22c-4.72-7.85-12.37-19.44-9.41-28.88C117.96,326.89,108.3,324.26,106.38,330.39
							L106.38,330.39z"/>
					</g>
				</g>
				<g>
					<g>
						<path class="st28" d="M215.54,311.53c26.21,26.21,28.25,68.65,4.09,96.97c-4.16,4.87,2.89,11.98,7.07,7.07
							c27.69-32.44,26.18-80.84-4.09-111.11C218.05,299.9,210.98,306.97,215.54,311.53L215.54,311.53z"/>
					</g>
				</g>
				<g>
					<g>
						<path class="st27" d="M209.18,321.36c11.6,5.59,22.57,12.51,32.29,20.99c4.58,4,8.97,8.38,11.83,13.81
							c3.11,5.89,4.25,12.65,5.46,19.13c1.18,6.32,10.82,3.64,9.64-2.66c-1.33-7.12-2.79-14.21-6.07-20.73
							c-3.01-5.98-7.63-11.09-12.57-15.54c-10.61-9.55-22.69-17.45-35.54-23.64C208.46,309.94,203.38,318.56,209.18,321.36
							L209.18,321.36z"/>
					</g>
				</g>
				<g>
					<g>
						<path class="st28" d="M165.63,326.77c-14.64,3.23-24.29,15.6-31.83,27.69c-8.53,13.68-14.33,30.22-6.12,45.45
							c3.05,5.67,11.69,0.62,8.63-5.05c-6.7-12.44,0.21-26.14,7.06-36.85c6.02-9.42,13.43-19.08,24.91-21.61
							C174.57,335.02,171.91,325.38,165.63,326.77L165.63,326.77z"/>
					</g>
				</g>
			</g>
		</g>
	</g>
</g>
<g id="DESIGNED_BY_FREEPIK" class="st0">
</g>
</svg>
